<svg width="44" height="44" viewBox="-11.28 -11.28 46.56 46.56" xmlns="http://www.w3.org/2000/svg" fill="#ffffff" stroke="#ffffff" stroke-width="0.00024">
  <defs>
    <linearGradient id="myGradient" x1="0" y1="0" x2="1" y2="0.25">
      <stop offset="0%" stop-color="#b3b3b5" />
      <stop offset="30%" stop-color="#4a4d52" />
      <stop offset="100%" stop-color="#1e1e22" />
    </linearGradient>
  </defs>

  <g transform="translate(3.72,3.72) scale(0.69)">
    <rect x="-11.28" y="-11.28" width="46.56" height="46.56" rx="3.72" fill="url(#myGradient)" />
  </g>

  <g>
    <path d="M4.5 7.5A1.5 1.5 0 0 1 6 9v10.5A1.5 1.5 0 0 1 4.5 21h-3C.673 21 0 20.328 0 19.5V9c0-.828.673-1.5 1.5-1.5h3zm9-4.5A1.5 1.5 0 0 1 15 4.5v15a1.5 1.5 0 0 1-1.5 1.5h-3c-.827 0-1.5-.672-1.5-1.5v-15c0-.828.673-1.5 1.5-1.5h3zm9 7.5A1.5 1.5 0 0 1 24 12v7.5a1.5 1.5 0 0 1-1.5 1.5h-3a1.5 1.5 0 0 1-1.5-1.5V12a1.5 1.5 0 0 1 1.5-1.5h3z" fill="#ffffff"/>
  </g>
</svg>
