<svg width="323" height="323" viewBox="0 0 323 323" fill="none" xmlns="http://www.w3.org/2000/svg">
<g clip-path="url(#clip0_2_19)">
<path d="M145.3 60H101C100.179 60.0052 99.394 60.3335 98.8138 60.9138C98.2335 61.494 97.9052 62.2794 97.9 63.1V135.6H50.5V63.1C50.4948 62.2794 50.1665 61.494 49.5862 60.9138C49.006 60.3335 48.2206 60.0052 47.4 60H3.1C2.27945 60.0052 1.49399 60.3335 0.913763 60.9138C0.333533 61.494 0.00524331 62.2794 0 63.1L0 259.7C0.00524331 260.521 0.333533 261.306 0.913763 261.886C1.49399 262.466 2.27945 262.795 3.1 262.8H47.3C48.1206 262.795 48.906 262.466 49.4862 261.886C50.0665 261.306 50.3948 260.521 50.4 259.7V180.8H97.8V259.7C97.8052 260.521 98.1335 261.306 98.7138 261.886C99.294 262.466 100.079 262.795 100.9 262.8H145.3C146.121 262.795 146.906 262.466 147.486 261.886C148.066 261.306 148.395 260.521 148.4 259.7V63.1C148.395 62.2794 148.066 61.494 147.486 60.9138C146.906 60.3335 146.121 60.0052 145.3 60Z" fill="#39424E"/>
<path d="M319.4 262.8C320.221 262.795 321.006 262.466 321.586 261.886C322.167 261.306 322.495 260.521 322.5 259.7V63.1C322.495 62.2794 322.167 61.494 321.586 60.9138C321.006 60.3335 320.221 60.0052 319.4 60H177.1C176.28 60.0052 175.494 60.3335 174.914 60.9138C174.334 61.494 174.005 62.2794 174 63.1V259.7C174.005 260.521 174.334 261.306 174.914 261.886C175.494 262.466 176.28 262.795 177.1 262.8H319.4Z" fill="#32C766"/>
</g>
<defs>
<clipPath id="clip0_2_19">
<rect width="322.5" height="322.5" fill="white" transform="translate(0 0.0999756)"/>
</clipPath>
</defs>
</svg>
